{
	"asset":{
		"generator":"Khronos glTF Blender I/O v4.5.48",
		"version":"2.0"
	},
	"scene":0,
	"scenes":[
		{
			"name":"Scene",
			"nodes":[
				0
			]
		}
	],
	"nodes":[
		{
			"mesh":0,
			"name":"15195_Large_Drink_with_Straw_V1",
			"rotation":[
				0.008149725385010242,
				0.9998693466186523,
				0.011336402967572212,
				0.008149678818881512
			],
			"scale":[
				0.9622278809547424,
				0.9622278809547424,
				0.9622278809547424
			],
			"translation":[
				-0.1547328233718872,
				0.8476609587669373,
				-0.23750759661197662
			]
		}
	],
	"meshes":[
		{
			"name":"15195_Large_Drink_with_Straw_V1",
			"primitives":[
				{
					"attributes":{
						"POSITION":0,
						"NORMAL":1
					},
					"indices":2
				}
			]
		}
	],
	"accessors":[
		{
			"bufferView":0,
			"componentType":5126,
			"count":232671,
			"max":[
				4.569900035858154,
				18.011499404907227,
				4.569799900054932
			],
			"min":[
				-4.56879997253418,
				0,
				-4.56850004196167
			],
			"type":"VEC3"
		},
		{
			"bufferView":1,
			"componentType":5126,
			"count":232671,
			"type":"VEC3"
		},
		{
			"bufferView":2,
			"componentType":5125,
			"count":1391616,
			"type":"SCALAR"
		}
	],
	"bufferViews":[
		{
			"buffer":0,
			"byteLength":2792052,
			"byteOffset":0,
			"target":34962
		},
		{
			"buffer":0,
			"byteLength":2792052,
			"byteOffset":2792052,
			"target":34962
		},
		{
			"buffer":0,
			"byteLength":5566464,
			"byteOffset":5584104,
			"target":34963
		}
	],
	"buffers":[
		{
			"byteLength":11150568,
			"uri":"juice.bin"
		}
	]
}
