<svg width="169" height="155" viewBox="0 0 169 155" fill="none" xmlns="http://www.w3.org/2000/svg">
<path fill-rule="evenodd" clip-rule="evenodd" d="M99.7575 0C101.825 0.000196269 103.642 1.3701 104.211 3.35742L125.423 77.4707C126.982 82.9182 134.578 83.6922 136.818 78.6318L149.086 50.915C150.003 48.8431 152.076 47.5225 154.412 47.5225H158.268C163.687 47.5226 168.12 51.8389 168.264 57.2559L168.623 70.7274C168.663 72.2365 168.361 73.7352 167.74 75.111L131.9 154.437C131.762 154.742 131.458 154.938 131.123 154.938C126.422 154.938 122.356 151.664 121.353 147.072L91.2389 9.19922C90.7955 7.16912 90.8813 4.94728 92.2555 3.38867C94.0876 1.31112 96.7697 0.000135604 99.7575 0Z" fill="#BE1347"/>
<path d="M45.624 0C70.8216 0 91.248 31.1867 91.248 69.6572C91.248 108.128 70.8215 139.313 45.624 139.313C20.4266 139.313 8.91333e-05 108.128 0 69.6572C0 31.1868 20.4266 0.00014166 45.624 0ZM46.3486 52.8047C34.3498 52.8047 24.623 60.3498 24.623 69.6572C24.6232 78.9645 34.3499 86.5098 46.3486 86.5098C58.3473 86.5097 68.074 78.9644 68.0742 69.6572C68.0742 60.3499 58.3474 52.8048 46.3486 52.8047Z" fill="#BE1347"/>
</svg>
